# xmcd CD database file
# Copyright (C) 1996 Ti Kan
#
# Track frame offsets:
#  220
#  17625
#  36350
#  50887
#  67445
#  86100
#  117492
#  138400
#  159262
#
# Disc length: 2574 seconds
#
# Revision: 2
# Processed by: cddbd v1.4b41PL1 Copyright (c) Steve Scherf et al.
# Submitted via: CDWizzard Release:4.12
#
DISCID=850a0c09
DTITLE=Clarence "Gatemouth" Brown - Real Life
DYEAR=1900
DGENRE=
TTITLE0=Real Life
TTITLE1=Okie Dokie Stomp
TTITLE2=Frankie And Johnny
TTITLE3=Next Time You See Me
TTITLE4=Take The A Train
TTITLE5=Please Send Me Someone To Love
TTITLE6=Catfish
TTITLE7=St. Louis Blues
TTITLE8=What A Shame, What A Shame
EXTD=Rounder CD 2054\n\nClarence Gatemouth Brown:  guitar, violin, vocal\n
EXTD=Luther Wamble:  guitar\nHarold Floyd:  bass\nDan Matrazzo:  keyboard
EXTD=s\nLloyd Herrman:  drums\nDennis Taylor:  tenor saxophone\nBill "Foo
EXTD=ts" Samuel:  baritone and tenor saxophone
EXTT0=
EXTT1=
EXTT2=
EXTT3=
EXTT4=
EXTT5=
EXTT6=
EXTT7=
EXTT8=
PLAYORDER=
